# xmcd
# 
# Track frame offsets:
#     150
#     17811
#     34692
#     55229
#     67819
#     88723
#     103221
#     118475
#     136830
#     152978
#     171855
#     188269
#     207242
# 
# Disc length: 3000
# 
# Revision: 1
# Processed by: cddbd v1.5.2PL0 Copyright (c) Steve Scherf et al.
# Submitted via: fre:ac v1.0.27
# 
DISCID=af0bb60d
DTITLE=Various Artist - Rec47  Willy Bleyen
DYEAR=0
DGENRE=Top 40
TTITLE0=Bruno Mars - Locked Out Of Heaven
TTITLE1=Enrique Iglesias and Kelis - Not In Love (Radio Mix)
TTITLE2=France Gall - Il Jouait Du Piano Debout
TTITLE3=Michel Teló - Ai Se Eu Te Pego
TTITLE4=Mumford and Sons - I Will Wait
TTITLE5=Nabiha - Never Played The Bass (Radio Edit)
TTITLE6=Olly Murs and Rizzle Kicks - Heart Skips A Beat
TTITLE7=P!nk - Just Give Me A Reason
TTITLE8=Passenger - Holes
TTITLE9=Passenger - Let Her Go
TTITLE10=Scooter - You
TTITLE11=Tom Odell - Another Love
TTITLE12=1950 And The Chu Chi Girls - The Chu Chi Sway (Radio Mix)
EXTD=
EXTT0=
EXTT1=
EXTT2=
EXTT3=
EXTT4=
EXTT5=
EXTT6=
EXTT7=
EXTT8=
EXTT9=
EXTT10=
EXTT11=
EXTT12=
PLAYORDER=
